{"title":"The Last Airbender CAM XviD FEEL-FREE","uid":5673479,"size":970204155,"categoryP":"video","categoryS":"movies","magnet":"?xt=urn:btih:7c686b27d694282929c6dbc2302a317a39bb733a&amp;dn=The+Last+Airbender+CAM+XviD+FEEL-FREE&amp;tr=udp%3A%2F%2Ftracker.openbittorrent.com%3A80&amp;tr=udp%3A%2F%2Fopen.demonii.com%3A1337&amp;tr=udp%3A%2F%2Ftracker.coppersurfer.tk%3A6969&amp;tr=udp%3A%2F%2Fexodus.desync.com%3A6969","seeders":1,"leechers":0,"uploader":"raymondhome","files":9,"time":1278442306,"description":"Love for All and Sharing is the first step to solving all the problems of humanity.\n\nWebsites I want to share.\n\n    &lt;a href=&quot;\nhttp://www.shareintl.org/&quot; rel=&quot;nofollow&quot; target=&quot;_NEW&quot;&gt;\nhttp://www.shareintl.org/&lt;/a&gt;\n\n    &lt;a href=&quot;\nhttp://www.lightmiddleway.com&quot; rel=&quot;nofollow&quot; target=&quot;_NEW&quot;&gt;\nhttp://www.lightmiddleway.com&lt;/a&gt;\n\n\nThank you very much\n\nNo credit for me...credit to EVERYONE for sharing\n &lt;a href=&quot;\nhttp://thepiratebay.se/user/raymondhome/&quot; rel=&quot;nofollow&quot; target=&quot;_NEW&quot;&gt;\nhttp://thepiratebay.se/user/raymondhome/&lt;/a&gt;\n\nPLOT\nThe story follows the adventures of Aang, a young successor to a long line of Avatars, who must put his childhood ways aside and stop the Fire Nation from enslaving the Water, Earth and Air nations.\n\nLanguage:English\nSource:Kingdom.Thanks!\nEncoder: Tony2\n........................................\nDuration : 1h 34mn\nOverall bit rate : 1 340 Kbps\n........................................\nVideo\nFormat : xvid\nCodec ID : xvid\nDuration : 1h 34mn\nBit rate : 1 199 Kbps\nWidth : 730 pixels\nHeight : 304 pixels\nDisplay aspect ratio : 2.40:1\nFrame rate : 29.970 fps\nResolution : 24 bits\nBits/(Pixel*Frame) : 0.180\nStream size : 812 MiB (89%)\n.......................................\nAudio\nID : 1\nFormat : MPEG Audio\nFormat version : Version 1\nFormat profile : Layer 3\nFormat settings, Mode : Joint stereo / MS Stereo\nCodec ID : 55\nCodec ID/Hint : MP3\nDuration : 1h 34mn\nBit rate mode : Constant\nBit rate : 128 Kbps\nChannel(s) : 2 channels\nSampling rate : 48.0 KHz\nResolution : 16 bits\nStream size : 86.7 MiB (10%)\nAlignment : Aligned on interleaves\nInterleave, duration : 24 ms (0.72 video frame)\nInterleave, preload duration : 24 ms\n\ncredit FEEL-FREE &amp; pitic BIG BIG BIG TIME &amp; to all the people who made it possible for us to share this...especially EVERYONE involve in the production of the movie...IF YOU LIKE IT...BUY IT :)\n\n*****help what we can with others in need...the world is ONE big family*****","torrent":{"xt":"urn:btih:7c686b27d694282929c6dbc2302a317a39bb733a","amp;dn":"The+Last+Airbender+CAM+XviD+FEEL-FREE","amp;tr":["udp%3A%2F%2Ftracker.openbittorrent.com%3A80","udp%3A%2F%2Fopen.demonii.com%3A1337","udp%3A%2F%2Ftracker.coppersurfer.tk%3A6969","udp%3A%2F%2Fexodus.desync.com%3A6969"],"infoHash":"7c686b27d694282929c6dbc2302a317a39bb733a","infoHashBuffer":{"type":"Buffer","data":[124,104,107,39,214,148,40,41,41,198,219,194,48,42,49,122,57,187,115,58]},"announce":[],"urlList":[]}}